<?xml version="1.0" encoding="UTF-8"?>
<svg version="1.1" xmlns="http://www.w3.org/2000/svg" width="150" height="150">
<path d="M0 0 C3.47914941 -0.02887814 6.95826831 -0.04675687 10.4375 -0.0625 C11.92733398 -0.07506836 11.92733398 -0.07506836 13.44726562 -0.08789062 C14.39150391 -0.09111328 15.33574219 -0.09433594 16.30859375 -0.09765625 C17.62041626 -0.10551147 17.62041626 -0.10551147 18.95874023 -0.11352539 C21 0 21 0 22 1 C22.09862603 2.39174359 22.1307898 3.78836143 22.1328125 5.18359375 C22.13474609 6.45106445 22.13474609 6.45106445 22.13671875 7.74414062 C22.13285156 8.63294922 22.12898438 9.52175781 22.125 10.4375 C22.13080078 11.76491211 22.13080078 11.76491211 22.13671875 13.11914062 C22.13542969 13.96541016 22.13414063 14.81167969 22.1328125 15.68359375 C22.13168457 16.46275146 22.13055664 17.24190918 22.12939453 18.04467773 C22 20 22 20 21 22 C24.3 22 27.6 22 31 22 C30.67 21.34 30.34 20.68 30 20 C29.90494931 18.56365857 29.86927133 17.12307525 29.8671875 15.68359375 C29.86525391 14.41418945 29.86525391 14.41418945 29.86328125 13.11914062 C29.86714844 12.23419922 29.87101562 11.34925781 29.875 10.4375 C29.86919922 9.10428711 29.86919922 9.10428711 29.86328125 7.74414062 C29.86457031 6.89916016 29.86585937 6.05417969 29.8671875 5.18359375 C29.86831543 4.40556396 29.86944336 3.62753418 29.87060547 2.82592773 C30 1 30 1 31 0 C32.56172745 -0.08685603 34.12729344 -0.10702219 35.69140625 -0.09765625 C36.63564453 -0.09443359 37.57988281 -0.09121094 38.55273438 -0.08789062 C39.54595703 -0.07951172 40.53917969 -0.07113281 41.5625 -0.0625 C42.55958984 -0.05798828 43.55667969 -0.05347656 44.58398438 -0.04882812 C47.05604849 -0.03700007 49.52799518 -0.02051849 52 0 C51.9375 2.3125 51.9375 2.3125 51 5 C48.69 5.99 46.38 6.98 44 8 C44 20.54 44 33.08 44 46 C45.65 46 47.3 46 49 46 C48.828125 47.78125 48.828125 47.78125 48 50 C45.671875 51.78125 45.671875 51.78125 42.75 53.5 C39.77021266 55.27176545 37.01406607 56.9886161 34.31640625 59.171875 C31.80709394 61.1522429 30.13882811 61.64127679 27 62 C27 60.68 27 59.36 27 58 C27.66 58 28.32 58 29 58 C29.33 49.75 29.66 41.5 30 33 C27.36 33 24.72 33 22 33 C21.97518656 37.03848316 21.9570864 41.07693647 21.94506836 45.11547852 C21.94005546 46.48788222 21.93324342 47.86028062 21.92456055 49.23266602 C21.91236143 51.21107651 21.90727752 53.1895268 21.90234375 55.16796875 C21.89710693 56.35672607 21.89187012 57.5454834 21.88647461 58.77026367 C21.98760521 61.64737487 22.33449807 64.20673413 23 67 C21.71186658 67.83878455 20.41936744 68.67086783 19.125 69.5 C18.40570313 69.9640625 17.68640625 70.428125 16.9453125 70.90625 C15 72 15 72 13 72 C13 72.66 13 73.32 13 74 C10.525 74.495 10.525 74.495 8 75 C7 73 7 73 7.42919922 71.35986328 C8.24140441 68.00196106 8.14250962 64.67598248 8.1328125 61.2421875 C8.13376923 60.49792511 8.13472595 59.75366272 8.13571167 58.98684692 C8.13639052 57.41847651 8.13455683 55.85010325 8.13037109 54.28173828 C8.12500349 51.8765639 8.13033378 49.47157496 8.13671875 47.06640625 C8.13605821 45.54166625 8.13477756 44.01692637 8.1328125 42.4921875 C8.13483673 41.77134979 8.13686096 41.05051208 8.13894653 40.30783081 C8.18168532 36.52824915 8.18168532 36.52824915 7 33 C6.01 32.67 5.02 32.34 4 32 C4 30.35 4 28.7 4 27 C4.99 26.67 5.98 26.34 7 26 C8.50524531 22.45622246 8.09752721 18.53293864 8.0625 14.75 C8.05347656 13.48671875 8.04445313 12.2234375 8.03515625 10.921875 C8.02355469 9.95765625 8.01195313 8.9934375 8 8 C5.36 6.68 2.72 5.36 0 4 C0 2.68 0 1.36 0 0 Z " fill="#EBE7DD" transform="translate(70,46)"/>
<path d="M0 0 C4.67718855 -0.14952894 9.35295433 -0.25775951 14.03198242 -0.32958984 C15.61979438 -0.35956376 17.20744357 -0.40035909 18.79467773 -0.45263672 C35.31927421 -0.98283768 35.31927421 -0.98283768 41.54321289 4.14160156 C44.15045733 7.46761877 44.26841171 10.45445877 44 14.5625 C43.97744141 15.32103271 43.95488281 16.07956543 43.93164062 16.86108398 C43.71030666 20.14695909 43.34562022 22.51884244 41.40625 25.21875 C39.5 26.5625 39.5 26.5625 36 28 C36.78130071 30.49552484 36.78130071 30.49552484 38 33 C38.99 33.33 39.98 33.66 41 34 C41 34.66 41 35.32 41 36 C41.66 36 42.32 36 43 36 C43 48.87 43 61.74 43 75 C38.6214626 73.24858504 35.02927258 71.37016034 31 69 C31 68.34 31 67.68 31 67 C30.2575 66.71125 29.515 66.4225 28.75 66.125 C26.43260203 65.17697356 24.22082885 64.15154089 22 63 C22 62.34 22 61.68 22 61 C21.27039063 60.73316406 20.54078125 60.46632812 19.7890625 60.19140625 C17.03645741 59.01557354 14.8224762 57.64905123 12.375 55.9375 C9.82843844 54.16012171 7.96802184 52.98934061 5 52 C5 51.34 5 50.68 5 50 C4.34 50 3.68 50 3 50 C3.33 48.68 3.66 47.36 4 46 C5.32 46 6.64 46 8 46 C8 33.46 8 20.92 8 8 C5.36 6.68 2.72 5.36 0 4 C0 2.68 0 1.36 0 0 Z M21 10 C21 15.94 21 21.88 21 28 C22.98 27.01 24.96 26.02 27 25 C27 24.34 27 23.68 27 23 C28.32 22.34 29.64 21.68 31 21 C31 17.7 31 14.4 31 11 C28.18010841 9.40371521 28.18010841 9.40371521 21 10 Z M26 34 C22.87802522 35.3089572 22.87802522 35.3089572 21 38 C20.41241114 42.10100681 20.22389972 45.91868942 21 50 C23.27797083 52.5737438 25.70465497 54.02727767 29 55 C29.66 54.67 30.32 54.34 31 54 C31.13526616 51.4149133 31.23417653 48.83691248 31.3125 46.25 C31.35439453 45.52039063 31.39628906 44.79078125 31.43945312 44.0390625 C31.54773084 41.59264706 31.54773084 41.59264706 31 38 C28.64872226 35.44867966 28.64872226 35.44867966 26 34 Z " fill="#F5F2E7" transform="translate(28,46)"/>
<path d="M0 0 C1.32 0.33 2.64 0.66 4 1 C4 2.32 4 3.64 4 5 C4.66 5 5.32 5 6 5 C6.33 6.98 6.66 8.96 7 11 C7.66 11 8.32 11 9 11 C8.979375 11.804375 8.95875 12.60875 8.9375 13.4375 C8.70366379 15.93354885 8.70366379 15.93354885 10 17 C10.0928125 16.09507813 10.0928125 16.09507813 10.1875 15.171875 C11.34937515 12.06609334 13.04158025 11.61154545 16 10.25 C16.9075 9.82203125 17.815 9.3940625 18.75 8.953125 C21 8 21 8 22 8 C22.72609768 13.80878146 19.57097955 18.15158033 16.87109375 23.046875 C15.67751697 25.72305612 15.93563847 28.103731 16 31 C15 32 15 32 12.40795898 32.11352539 C11.28204346 32.10828857 10.15612793 32.10305176 8.99609375 32.09765625 C7.78115234 32.09443359 6.56621094 32.09121094 5.31445312 32.08789062 C4.03505859 32.07951172 2.75566406 32.07113281 1.4375 32.0625 C0.15423828 32.05798828 -1.12902344 32.05347656 -2.45117188 32.04882812 C-5.63416022 32.03699545 -8.81705762 32.02051068 -12 32 C-12.625 30.1875 -12.625 30.1875 -13 28 C-12.34 27.01 -11.68 26.02 -11 25 C-11.66 25 -12.32 25 -13 25 C-16 18.5 -16 18.5 -16 14 C-16.66 14 -17.32 14 -18 14 C-18.33 12.02 -18.66 10.04 -19 8 C-14.69235185 9.56641751 -10.93828536 11.68336156 -7 14 C-7 14.99 -7 15.98 -7 17 C-6.34 16.67 -5.68 16.34 -5 16 C-4.79685176 14.37481407 -4.59735121 12.74907423 -4.41796875 11.12109375 C-3.63812547 7.16357132 -1.75830382 3.60656737 0 0 Z " fill="#C52D32" transform="translate(73,13)"/>
<path d="M0 0 C0.33 0 0.66 0 1 0 C1.95619733 3.99795892 2.1039592 7.70803922 2.0625 11.8125 C2.05347656 12.97394531 2.04445313 14.13539062 2.03515625 15.33203125 C2.02355469 16.21246094 2.01195312 17.09289062 2 18 C2.66 18 3.32 18 4 18 C4.33 16.35 4.66 14.7 5 13 C5.66 13 6.32 13 7 13 C7.99 14.485 7.99 14.485 9 16 C9.99 15.34 10.98 14.68 12 14 C12 16.31 12 18.62 12 21 C13.11375 21.433125 13.11375 21.433125 14.25 21.875 C16.5448282 22.81379336 18.78233105 23.89116553 21 25 C21 20.05 21 15.1 21 10 C21.66 9.67 22.32 9.34 23 9 C23.66 11.64 24.32 14.28 25 17 C26.32 15.68 27.64 14.36 29 13 C29.495 18.94 29.495 18.94 30 25 C31.32 24.67 32.64 24.34 34 24 C34 31.26 34 38.52 34 46 C29.6214626 44.24858504 26.02927258 42.37016034 22 40 C22 39.34 22 38.68 22 38 C20.88625 37.566875 20.88625 37.566875 19.75 37.125 C17.43260203 36.17697356 15.22082885 35.15154089 13 34 C13 33.34 13 32.68 13 32 C12.27039063 31.73316406 11.54078125 31.46632813 10.7890625 31.19140625 C8.03645741 30.01557354 5.8224762 28.64905123 3.375 26.9375 C0.82843844 25.16012171 -1.03197816 23.98934061 -4 23 C-4 22.34 -4 21.68 -4 21 C-4.66 21 -5.32 21 -6 21 C-5.67 19.68 -5.34 18.36 -5 17 C-3.68 17 -2.36 17 -1 17 C-0.67 11.39 -0.34 5.78 0 0 Z " fill="#C7BFB5" transform="translate(37,75)"/>
<path d="M0 0 C10.89 0 21.78 0 33 0 C33 0.33 33 0.66 33 1 C32.14450562 1.03758423 32.14450562 1.03758423 31.27172852 1.07592773 C28.70173843 1.19156549 26.13214473 1.31443624 23.5625 1.4375 C22.66466797 1.47681641 21.76683594 1.51613281 20.84179688 1.55664062 C19.98779297 1.59853516 19.13378906 1.64042969 18.25390625 1.68359375 C17.46314697 1.72025146 16.6723877 1.75690918 15.85766602 1.79467773 C13.98598559 1.80563257 13.98598559 1.80563257 13 3 C10.30917128 2.82364548 7.67148554 2.38164079 5 2 C5 2.66 5 3.32 5 4 C9.95 4.33 14.9 4.66 20 5 C20 5.99 20 6.98 20 8 C23.3 8 26.6 8 30 8 C30.33 8.99 30.66 9.98 31 11 C27.7 10.67 24.4 10.34 21 10 C21.495 18.415 21.495 18.415 22 27 C22.66 27.33 23.32 27.66 24 28 C23.67 28.99 23.34 29.98 23 31 C22.01 31 21.02 31 20 31 C20 32.32 20 33.64 20 35 C20.99 35 21.98 35 23 35 C23.33 33.68 23.66 32.36 24 31 C24.99 31 25.98 31 27 31 C26.67 32.32 26.34 33.64 26 35 C24.02 35.495 24.02 35.495 22 36 C21.9175 37.093125 21.835 38.18625 21.75 39.3125 C21 43 21 43 18.9375 44.9375 C17.9784375 45.4634375 17.9784375 45.4634375 17 46 C16.67 44.68 16.34 43.36 16 42 C15.01 42.495 15.01 42.495 14 43 C13.34786708 45.02463255 13.34786708 45.02463255 13 47 C12.34 47 11.68 47 11 47 C9.36621869 34.00905929 8.49027073 21.08248745 8 8 C5.36 6.68 2.72 5.36 0 4 C0 2.68 0 1.36 0 0 Z " fill="#F4F0E3" transform="translate(28,46)"/>
<path d="M0 0 C0.66 0 1.32 0 2 0 C1.99476318 0.73114014 1.98952637 1.46228027 1.98413086 2.21557617 C1.96329839 5.53954198 1.95031986 8.86349403 1.9375 12.1875 C1.92912109 13.33798828 1.92074219 14.48847656 1.91210938 15.67382812 C1.90888672 16.78564453 1.90566406 17.89746094 1.90234375 19.04296875 C1.89710693 20.06414795 1.89187012 21.08532715 1.88647461 22.13745117 C1.99480533 24.86901616 2.38293132 27.34169374 3 30 C1.71186658 30.83878455 0.41936744 31.67086783 -0.875 32.5 C-1.59429687 32.9640625 -2.31359375 33.428125 -3.0546875 33.90625 C-5 35 -5 35 -7 35 C-7 35.66 -7 36.32 -7 37 C-9.475 37.495 -9.475 37.495 -12 38 C-13.28465277 35.43069447 -12.6877391 34.74386935 -12 32 C-11.91879767 29.9023604 -11.89244192 27.80231238 -11.90234375 25.703125 C-11.90556641 24.49785156 -11.90878906 23.29257813 -11.91210938 22.05078125 C-11.92467773 20.16939453 -11.92467773 20.16939453 -11.9375 18.25 C-11.94201172 16.98027344 -11.94652344 15.71054688 -11.95117188 14.40234375 C-11.96295444 11.26818164 -11.97940584 8.13411459 -12 5 C-10.02 5.495 -10.02 5.495 -8 6 C-7.54625 5.34 -7.0925 4.68 -6.625 4 C-6.08875 3.34 -5.5525 2.68 -5 2 C-4.34 2 -3.68 2 -3 2 C-2.67 3.65 -2.34 5.3 -2 7 C-1.34 4.69 -0.68 2.38 0 0 Z " fill="#E3DDD2" transform="translate(90,83)"/>
<path d="M0 0 C0.33 0 0.66 0 1 0 C1.33 6.27 1.66 12.54 2 19 C3.65 19 5.3 19 7 19 C6.828125 20.78125 6.828125 20.78125 6 23 C3.671875 24.78125 3.671875 24.78125 0.75 26.5 C-2.22978734 28.27176545 -4.98593393 29.9886161 -7.68359375 32.171875 C-10.19290606 34.1522429 -11.86117189 34.64127679 -15 35 C-15 33.68 -15 32.36 -15 31 C-14.34 31 -13.68 31 -13 31 C-12.67 24.07 -12.34 17.14 -12 10 C-11.67 10 -11.34 10 -11 10 C-11 11.98 -11 13.96 -11 16 C-10.01 15.67 -9.02 15.34 -8 15 C-6.97718482 12.90280128 -6.97718482 12.90280128 -6.3125 10.4375 C-6.06113281 9.61121094 -5.80976562 8.78492187 -5.55078125 7.93359375 C-5.36902344 7.29550781 -5.18726562 6.65742187 -5 6 C-4.34 6 -3.68 6 -3 6 C-2.67 6.66 -2.34 7.32 -2 8 C-1.34 5.36 -0.68 2.72 0 0 Z " fill="#CAC0B9" transform="translate(112,73)"/>
<path d="M0 0 C0.99 0.33 1.98 0.66 3 1 C3.33 4.63 3.66 8.26 4 12 C7.74691447 13.39770584 7.74691447 13.39770584 10 12 C10 20.25 10 28.5 10 37 C10.66 37 11.32 37 12 37 C12 35.02 12 33.04 12 31 C12.66 31 13.32 31 14 31 C14.25 33.8125 14.25 33.8125 14 37 C12 38.875 12 38.875 10 40 C9.67 38.68 9.34 37.36 9 36 C8.01 36.495 8.01 36.495 7 37 C6.34786708 39.02463255 6.34786708 39.02463255 6 41 C5.34 41 4.68 41 4 41 C2.64765345 30.24687549 1.71565752 19.56656802 1.34204102 8.73168945 C1.31037842 7.88179443 1.27871582 7.03189941 1.24609375 6.15625 C1.22216553 5.40150391 1.1982373 4.64675781 1.17358398 3.86914062 C1.1054553 1.90875277 1.1054553 1.90875277 0 0 Z " fill="#EEE9DC" transform="translate(35,52)"/>
<path d="M0 0 C2.5654594 2.5654594 2.54046087 4.47686668 3 8 C4.32 6.68 5.64 5.36 7 4 C7.33 7.96 7.66 11.92 8 16 C9.32 15.67 10.64 15.34 12 15 C12 22.26 12 29.52 12 37 C7.59247986 35.23699194 5.8592388 34.4946252 3 31 C3 30.01 3 29.02 3 28 C5.475 28.99 5.475 28.99 8 30 C7.34 26.7 6.68 23.4 6 20 C5.01 20.33 4.02 20.66 3 21 C3 20.34 3 19.68 3 19 C2.34 19 1.68 19 1 19 C1 15.37 1 11.74 1 8 C0.34 8 -0.32 8 -1 8 C-1.04241723 5.66705225 -1.04092937 3.33297433 -1 1 C-0.67 0.67 -0.34 0.34 0 0 Z " fill="#D5CBC1" transform="translate(59,84)"/>
<path d="M0 0 C0.33 0 0.66 0 1 0 C0.99476318 0.73114014 0.98952637 1.46228027 0.98413086 2.21557617 C0.96329839 5.53954198 0.95031986 8.86349403 0.9375 12.1875 C0.92912109 13.33798828 0.92074219 14.48847656 0.91210938 15.67382812 C0.90888672 16.78564453 0.90566406 17.89746094 0.90234375 19.04296875 C0.89710693 20.06414795 0.89187012 21.08532715 0.88647461 22.13745117 C0.99480533 24.86901616 1.38293132 27.34169374 2 30 C0.71186658 30.83878455 -0.58063256 31.67086783 -1.875 32.5 C-2.59429687 32.9640625 -3.31359375 33.428125 -4.0546875 33.90625 C-6 35 -6 35 -8 35 C-8 35.66 -8 36.32 -8 37 C-10.475 37.495 -10.475 37.495 -13 38 C-14.28335929 35.43328141 -13.69035385 34.7377021 -13 32 C-12.91908908 29.97531289 -12.89241101 27.94815381 -12.90234375 25.921875 C-12.90556641 24.76171875 -12.90878906 23.6015625 -12.91210938 22.40625 C-12.92048828 21.1996875 -12.92886719 19.993125 -12.9375 18.75 C-12.94201172 17.52796875 -12.94652344 16.3059375 -12.95117188 15.046875 C-12.96295185 12.03120054 -12.97940147 9.01562502 -13 6 C-12.67 6 -12.34 6 -12 6 C-11.46460245 8.83125483 -10.94647276 11.66397711 -10.4375 14.5 C-10.28603516 15.29148437 -10.13457031 16.08296875 -9.97851562 16.8984375 C-9.03589682 22.24725118 -9.07253798 26.6440604 -10 32 C-9.21625 31.505 -8.4325 31.01 -7.625 30.5 C-5 29 -5 29 -3 29 C-3.33 28.01 -3.66 27.02 -4 26 C-4.06740865 24.43881572 -4.08514456 22.8749748 -4.0625 21.3125 C-4.05347656 20.50425781 -4.04445313 19.69601563 -4.03515625 18.86328125 C-4.02355469 18.24839844 -4.01195313 17.63351563 -4 17 C-2.68 17 -1.36 17 0 17 C0 11.39 0 5.78 0 0 Z " fill="#CCC1BA" transform="translate(91,83)"/>
<path d="M0 0 C2.61376953 -0.34057617 2.61376953 -0.34057617 5.8828125 -0.29296875 C7.04941406 -0.28330078 8.21601562 -0.27363281 9.41796875 -0.26367188 C10.64128906 -0.23853516 11.86460938 -0.21339844 13.125 -0.1875 C14.35605469 -0.17396484 15.58710937 -0.16042969 16.85546875 -0.14648438 C19.90407843 -0.11103543 22.951825 -0.06162079 26 0 C26.38133299 1.9914056 26.71325582 3.99279077 27 6 C26 7 26 7 23.40795898 7.11352539 C22.28204346 7.10828857 21.15612793 7.10305176 19.99609375 7.09765625 C18.78115234 7.09443359 17.56621094 7.09121094 16.31445312 7.08789062 C15.03505859 7.07951172 13.75566406 7.07113281 12.4375 7.0625 C11.15423828 7.05798828 9.87097656 7.05347656 8.54882812 7.04882812 C5.36583978 7.03699545 2.18294238 7.02051068 -1 7 C-1.625 5.1875 -1.625 5.1875 -2 3 C-1.34 2.01 -0.68 1.02 0 0 Z " fill="#C62425" transform="translate(62,38)"/>
<path d="M0 0 C0 1.32 0 2.64 0 4 C-0.66 4 -1.32 4 -2 4 C-2 4.66 -2 5.32 -2 6 C-5.46153846 9 -5.46153846 9 -8 9 C-8 9.66 -8 10.32 -8 11 C-9.73391951 12.60634015 -11.538091 14.1375287 -13.375 15.625 C-14.37273437 16.44226563 -15.37046875 17.25953125 -16.3984375 18.1015625 C-19 20 -19 20 -21 20 C-21 20.66 -21 21.32 -21 22 C-23.8125 24.1875 -23.8125 24.1875 -27 26 C-27.99 25.67 -28.98 25.34 -30 25 C-26.7130401 17.37079308 -22.27983808 13.00713211 -15 9 C-14.34 9 -13.68 9 -13 9 C-13 8.34 -13 7.68 -13 7 C-11.68 6.67 -10.36 6.34 -9 6 C-9 5.34 -9 4.68 -9 4 C-2.25 0 -2.25 0 0 0 Z " fill="#A22A2A" transform="translate(107,109)"/>
<path d="M0 0 C6.18768404 1.48141621 10.6293993 5.06579947 15.625 8.8125 C16.470625 9.42931641 17.31625 10.04613281 18.1875 10.68164062 C26.18587119 16.61734038 26.18587119 16.61734038 29 21 C29.25 23.8125 29.25 23.8125 29 26 C27.68 25.67 26.36 25.34 25 25 C25 24.34 25 23.68 25 23 C24.46375 22.7525 23.9275 22.505 23.375 22.25 C19.24295623 20.07524012 14.99053842 17.65510252 12 14 C12 13.34 12 12.68 12 12 C11.41605469 11.72929688 10.83210938 11.45859375 10.23046875 11.1796875 C8.01116915 10.00590733 6.23438838 8.73421674 4.3125 7.125 C3.71050781 6.63257812 3.10851563 6.14015625 2.48828125 5.6328125 C0.79512501 3.77522902 0.39815079 2.45260887 0 0 Z " fill="#A62024" transform="translate(42,109)"/>
<path d="M0 0 C4.55676975 2.27838488 5.16599379 3.41498448 7 8 C7 9.32 7 10.64 7 12 C6.34 12 5.68 12 5 12 C5.33 12.99 5.66 13.98 6 15 C8.97 15.495 8.97 15.495 12 16 C12 17.32 12 18.64 12 20 C12.99 20.33 13.98 20.66 15 21 C7.08 21 -0.84 21 -9 21 C-9.33 20.01 -9.66 19.02 -10 18 C-7.03 17.01 -4.06 16.02 -1 15 C-1 13.68 -1 12.36 -1 11 C0.65 11 2.3 11 4 11 C4 10.01 4 9.02 4 8 C2.68 8 1.36 8 0 8 C-0.33 8.66 -0.66 9.32 -1 10 C-0.67 6.7 -0.34 3.4 0 0 Z " fill="#E73231" transform="translate(72,16)"/>
<path d="M0 0 C1.98 0.66 3.96 1.32 6 2 C6 2.66 6 3.32 6 4 C6.99 4.33 7.98 4.66 9 5 C9 5.66 9 6.32 9 7 C9.66 7 10.32 7 11 7 C11 12.61 11 18.22 11 24 C9.68 24.33 8.36 24.66 7 25 C6.34 21.37 5.68 17.74 5 14 C4.34 16.31 3.68 18.62 3 21 C0.60926555 17.17482487 0.44033448 13.40334476 0 9 C-0.99 8.67 -1.98 8.34 -3 8 C-2.34 7.67 -1.68 7.34 -1 7 C-0.34 7.33 0.32 7.66 1 8 C0.835 7.4225 0.67 6.845 0.5 6.25 C0 4 0 4 0 0 Z " fill="#EEE9DE" transform="translate(60,75)"/>
<path d="M0 0 C0.66 0.33 1.32 0.66 2 1 C3.70363822 1.22622081 5.41328701 1.40888473 7.125 1.5625 C8.03507812 1.64628906 8.94515625 1.73007812 9.8828125 1.81640625 C10.58148438 1.87699219 11.28015625 1.93757813 12 2 C12 2.66 12 3.32 12 4 C9.36 4.33 6.72 4.66 4 5 C4 7.64 4 10.28 4 13 C4.66 13 5.32 13 6 13 C6 11.35 6 9.7 6 8 C6.33 8 6.66 8 7 8 C6.67 13.94 6.34 19.88 6 26 C5.34 26.33 4.68 26.66 4 27 C3.67 23.37 3.34 19.74 3 16 C2.34 16 1.68 16 1 16 C1.061875 16.78375 1.12375 17.5675 1.1875 18.375 C1.125625 19.24125 1.06375 20.1075 1 21 C0.01 21.66 -0.98 22.32 -2 23 C-2 15.74 -2 8.48 -2 1 C-1.34 0.67 -0.68 0.34 0 0 Z " fill="#F2ECE0" transform="translate(105,46)"/>
<path d="M0 0 C1.32 0.33 2.64 0.66 4 1 C4 2.32 4 3.64 4 5 C4.66 5 5.32 5 6 5 C6.33 6.98 6.66 8.96 7 11 C7.66 11 8.32 11 9 11 C8.979375 11.804375 8.95875 12.60875 8.9375 13.4375 C8.70366379 15.93354885 8.70366379 15.93354885 10 17 C10.061875 16.39671875 10.12375 15.7934375 10.1875 15.171875 C11.34937515 12.06609334 13.04158025 11.61154545 16 10.25 C16.9075 9.82203125 17.815 9.3940625 18.75 8.953125 C21 8 21 8 22 8 C22.64366639 13.14933111 20.37721719 16.63598451 18 21 C17.32870775 22.33101049 16.6607077 23.66370379 16 25 C15.67 24.34 15.34 23.68 15 23 C13.68 23 12.36 23 11 23 C11 21.68 11 20.36 11 19 C9.02 19 7.04 19 5 19 C4.67 17.68 4.34 16.36 4 15 C4.66 15 5.32 15 6 15 C5.38144369 13.3725363 4.75492695 11.74809644 4.125 10.125 C3.77695313 9.22007813 3.42890625 8.31515625 3.0703125 7.3828125 C2.11469105 4.87782993 2.11469105 4.87782993 0 3 C0 2.01 0 1.02 0 0 Z " fill="#C23233" transform="translate(73,13)"/>
<path d="M0 0 C1.12067871 0.05236816 2.24135742 0.10473633 3.39599609 0.15869141 C4.60771484 0.21025391 5.81943359 0.26181641 7.06787109 0.31494141 C8.97439453 0.41162109 8.97439453 0.41162109 10.91943359 0.51025391 C12.19818359 0.56697266 13.47693359 0.62369141 14.79443359 0.68212891 C17.96164046 0.82394414 21.12809473 0.97538886 24.29443359 1.13525391 C24.62443359 2.45525391 24.95443359 3.77525391 25.29443359 5.13525391 C21.98264405 5.47590029 18.66991322 5.80640013 15.35693359 6.13525391 C14.43074219 6.23064453 13.50455078 6.32603516 12.55029297 6.42431641 C6.76532253 6.99266438 1.10713083 7.23064176 -4.70556641 7.13525391 C-4.83056641 4.76025391 -4.83056641 4.76025391 -4.70556641 2.13525391 C-2.70556641 0.13525391 -2.70556641 0.13525391 0 0 Z " fill="#8E2327" transform="translate(97.70556640625,34.86474609375)"/>
<path d="M0 0 C1.31291016 -0.03867187 1.31291016 -0.03867187 2.65234375 -0.078125 C3.40386719 -0.10390625 4.15539062 -0.1296875 4.9296875 -0.15625 C5.51878906 -0.04796875 6.10789062 0.0603125 6.71484375 0.171875 C8.71484375 3.171875 8.71484375 3.171875 8.71484375 7.171875 C1.76518282 7.3065656 -5.00372008 6.92902504 -11.91015625 6.171875 C-13.27333984 6.02878906 -13.27333984 6.02878906 -14.6640625 5.8828125 C-16.87162668 5.65043732 -19.07857886 5.41341011 -21.28515625 5.171875 C-20.95515625 3.851875 -20.62515625 2.531875 -20.28515625 1.171875 C-13.52565851 0.7327429 -6.76443601 0.35390628 0 0 Z " fill="#A52322" transform="translate(48.28515625,34.828125)"/>
<path d="M0 0 C-0.66 0.33 -1.32 0.66 -2 1 C-2.33 1.99 -2.66 2.98 -3 4 C-3.66 3.34 -4.32 2.68 -5 2 C-7.76513148 1.64413345 -7.76513148 1.64413345 -10.99609375 1.62109375 C-12.19427734 1.58693359 -13.39246094 1.55277344 -14.62695312 1.51757812 C-15.88443359 1.49115234 -17.14191406 1.46472656 -18.4375 1.4375 C-20.9154625 1.37762121 -23.39333813 1.3139957 -25.87109375 1.24609375 C-26.97380615 1.22216553 -28.07651855 1.1982373 -29.21264648 1.17358398 C-32 1 -32 1 -35 0 C-35 -0.66 -35 -1.32 -35 -2 C-33.700625 -1.979375 -32.40125 -1.95875 -31.0625 -1.9375 C-29.70834367 -1.91600546 -28.35243917 -1.92851801 -27 -2 C-26.67 -2.33 -26.34 -2.66 -26 -3 C-22.97780054 -3.46511624 -19.92448147 -3.61056261 -16.875 -3.8125 C-16.03195313 -3.88919922 -15.18890625 -3.96589844 -14.3203125 -4.04492188 C-8.24306504 -4.43654574 -5.00261645 -3.49098574 0 0 Z " fill="#FAF8EF" transform="translate(68,50)"/>
<path d="M0 0 C0.66 0 1.32 0 2 0 C2 3.63 2 7.26 2 11 C2.66 11 3.32 11 4 11 C4 11.66 4 12.32 4 13 C5.32 12.34 6.64 11.68 8 11 C9.17571451 14.67410785 9.07366746 18.16929183 9 22 C6.525 21.01 6.525 21.01 4 20 C4.33 21.65 4.66 23.3 5 25 C3.68 24.34 2.36 23.68 1 23 C1 22.34 1 21.68 1 21 C-1.475 20.01 -1.475 20.01 -4 19 C-2.68 18.67 -1.36 18.34 0 18 C-0.33 17.67 -0.66 17.34 -1 17 C-0.835 16.21625 -0.67 15.4325 -0.5 14.625 C0.23945377 11.90477321 0.23945377 11.90477321 -1 9 C-0.67 8.67 -0.34 8.34 0 8 C0.07148199 6.64756083 0.08399454 5.29165633 0.0625 3.9375 C0.041875 2.638125 0.02125 1.33875 0 0 Z " fill="#BFB7AF" transform="translate(58,92)"/>
<path d="M0 0 C4.62 0 9.24 0 14 0 C14 6.93 14 13.86 14 21 C13.34 21 12.68 21 12 21 C12 15.06 12 9.12 12 3 C10.35 3 8.7 3 7 3 C7 6.3 7 9.6 7 13 C6.67 13 6.34 13 6 13 C5.67 10.69 5.34 8.38 5 6 C3.68 5.67 2.36 5.34 1 5 C0.67 3.35 0.34 1.7 0 0 Z " fill="#FDFCF5" transform="translate(75,48)"/>
<path d="M0 0 C0.66 0 1.32 0 2 0 C2 4.62 2 9.24 2 14 C2.66 14 3.32 14 4 14 C4 12.02 4 10.04 4 8 C4.66 8 5.32 8 6 8 C6.25 10.8125 6.25 10.8125 6 14 C4 15.875 4 15.875 2 17 C1.67 15.68 1.34 14.36 1 13 C0.01 13.495 0.01 13.495 -1 14 C-1.65213292 16.02463255 -1.65213292 16.02463255 -2 18 C-2.66 18 -3.32 18 -4 18 C-4 13.71 -4 9.42 -4 5 C-3.34 5 -2.68 5 -2 5 C-2 4.01 -2 3.02 -2 2 C-1.34 2 -0.68 2 0 2 C0 1.34 0 0.68 0 0 Z " fill="#DCD4C9" transform="translate(43,75)"/>
<path d="M0 0 C2.61376953 -0.34057617 2.61376953 -0.34057617 5.8828125 -0.29296875 C7.04941406 -0.28330078 8.21601562 -0.27363281 9.41796875 -0.26367188 C10.64128906 -0.23853516 11.86460938 -0.21339844 13.125 -0.1875 C14.35605469 -0.17396484 15.58710937 -0.16042969 16.85546875 -0.14648438 C19.90407843 -0.11103543 22.951825 -0.06162079 26 0 C26.38133299 1.9914056 26.71325582 3.99279077 27 6 C26 7 26 7 23.40795898 7.11352539 C22.28204346 7.10828857 21.15612793 7.10305176 19.99609375 7.09765625 C18.78115234 7.09443359 17.56621094 7.09121094 16.31445312 7.08789062 C15.03505859 7.07951172 13.75566406 7.07113281 12.4375 7.0625 C11.15423828 7.05798828 9.87097656 7.05347656 8.54882812 7.04882812 C5.36583978 7.03699545 2.18294238 7.02051068 -1 7 C-1.625 5.1875 -1.625 5.1875 -2 3 C-1.34 2.01 -0.68 1.02 0 0 Z M1 1 C0.67 2.32 0.34 3.64 0 5 C8.25 5 16.5 5 25 5 C24.67 3.68 24.34 2.36 24 1 C16.41 1 8.82 1 1 1 Z " fill="#A42F31" transform="translate(62,38)"/>
<path d="M0 0 C0.33 4.62 0.66 9.24 1 14 C-4 17 -4 17 -6 17 C-6 11.72 -6 6.44 -6 1 C-2 0 -2 0 0 0 Z " fill="#CBC2B9" transform="translate(87,98)"/>
<path d="M0 0 C2.5654594 2.5654594 2.54046087 4.47686668 3 8 C4.32 6.68 5.64 5.36 7 4 C7.33 7.63 7.66 11.26 8 15 C6.68 15 5.36 15 4 15 C4.33 16.65 4.66 18.3 5 20 C3.68 19.67 2.36 19.34 1 19 C1 15.37 1 11.74 1 8 C0.34 8 -0.32 8 -1 8 C-1.04241723 5.66705225 -1.04092937 3.33297433 -1 1 C-0.67 0.67 -0.34 0.34 0 0 Z " fill="#E5DFD3" transform="translate(59,84)"/>
<path d="M0 0 C0.33 0 0.66 0 1 0 C4.76595745 19.34042553 4.76595745 19.34042553 3 29 C3.66 29 4.32 29 5 29 C5 29.66 5 30.32 5 31 C3.35 31.33 1.7 31.66 0 32 C-1.28335929 29.43328141 -0.69035385 28.7377021 0 26 C0.08091092 23.97531289 0.10758899 21.94815381 0.09765625 19.921875 C0.09443359 18.76171875 0.09121094 17.6015625 0.08789062 16.40625 C0.07951172 15.1996875 0.07113281 13.993125 0.0625 12.75 C0.05798828 11.52796875 0.05347656 10.3059375 0.04882812 9.046875 C0.03704815 6.03120054 0.02059853 3.01562502 0 0 Z " fill="#C59FB0" transform="translate(78,89)"/>
<path d="M0 0 C0.66 0.33 1.32 0.66 2 1 C3.70363822 1.22622081 5.41328701 1.40888473 7.125 1.5625 C8.03507812 1.64628906 8.94515625 1.73007812 9.8828125 1.81640625 C10.58148438 1.87699219 11.28015625 1.93757813 12 2 C12 2.66 12 3.32 12 4 C9.11788698 4.96070434 7.30149956 5.10581883 4.3125 5.0625 C2.889375 5.041875 1.46625 5.02125 0 5 C0 10.61 0 16.22 0 22 C-0.66 22.33 -1.32 22.66 -2 23 C-2 15.74 -2 8.48 -2 1 C-1.34 0.67 -0.68 0.34 0 0 Z " fill="#FAF6EC" transform="translate(105,46)"/>
<path d="M0 0 C0.33 0 0.66 0 1 0 C1.33 5.61 1.66 11.22 2 17 C2.66 17.33 3.32 17.66 4 18 C3.67 18.99 3.34 19.98 3 21 C2.01 21 1.02 21 0 21 C0 22.32 0 23.64 0 25 C0.99 25 1.98 25 3 25 C3.33 23.68 3.66 22.36 4 21 C4.99 21 5.98 21 7 21 C6.67 22.32 6.34 23.64 6 25 C5.360625 25.12375 4.72125 25.2475 4.0625 25.375 C3.381875 25.58125 2.70125 25.7875 2 26 C1.67 26.66 1.34 27.32 1 28 C0.34 27.67 -0.32 27.34 -1 27 C-1 28.98 -1 30.96 -1 33 C-1.66 33 -2.32 33 -3 33 C-3 28.71 -3 24.42 -3 20 C-2.34 20 -1.68 20 -1 20 C-0.67 13.4 -0.34 6.8 0 0 Z " fill="#E8E3D9" transform="translate(48,56)"/>
<path d="M0 0 C4.88048662 1.33370656 8.45118545 3.52470208 12.375 6.625 C12.92027344 7.04523438 13.46554688 7.46546875 14.02734375 7.8984375 C15.35721778 8.92500693 16.67942793 9.96149187 18 11 C17.01 11.495 17.01 11.495 16 12 C15.34 11.67 14.68 11.34 14 11 C14 11.99 14 12.98 14 14 C13.34 14 12.68 14 12 14 C12 13.34 12 12.68 12 12 C11.41605469 11.72929688 10.83210938 11.45859375 10.23046875 11.1796875 C8.01116915 10.00590733 6.23438838 8.73421674 4.3125 7.125 C3.71050781 6.63257812 3.10851563 6.14015625 2.48828125 5.6328125 C0.79512501 3.77522902 0.39815079 2.45260887 0 0 Z " fill="#A7212A" transform="translate(42,109)"/>
<path d="M0 0 C0 2.31 0 4.62 0 7 C0.7425 7.2475 1.485 7.495 2.25 7.75 C5.24840999 9.11291363 6.87959545 10.50095178 9 13 C9.33 13.99 9.66 14.98 10 16 C6.62537285 15.45276317 4.91765 14.9451 2 13 C2 12.34 2 11.68 2 11 C1.195625 10.690625 0.39125 10.38125 -0.4375 10.0625 C-3 9 -3 9 -4 8 C-4.31242276 5.03198382 -4.45247602 3.57051324 -2.5625 1.1875 C-1 0 -1 0 0 0 Z " fill="#CFC6BD" transform="translate(49,89)"/>
<path d="M0 0 C0.66 0 1.32 0 2 0 C1.67 2.31 1.34 4.62 1 7 C2.32 7 3.64 7 5 7 C5 7.99 5 8.98 5 10 C3.68 10.33 2.36 10.66 1 11 C0.67 12.32 0.34 13.64 0 15 C-2.33294775 15.04241723 -4.66702567 15.04092937 -7 15 C-8 14 -8 14 -8.0625 11.4375 C-8.041875 10.633125 -8.02125 9.82875 -8 9 C-7.01 9.33 -6.02 9.66 -5 10 C-5 10.99 -5 11.98 -5 13 C-4.34 12.67 -3.68 12.34 -3 12 C-2.64159778 9.67038557 -2.31151288 7.33634657 -2 5 C-0.9375 2.0625 -0.9375 2.0625 0 0 Z " fill="#CE413F" transform="translate(71,17)"/>
<path d="M0 0 C3.47914941 -0.02887814 6.95826831 -0.04675687 10.4375 -0.0625 C11.92733398 -0.07506836 11.92733398 -0.07506836 13.44726562 -0.08789062 C14.39150391 -0.09111328 15.33574219 -0.09433594 16.30859375 -0.09765625 C17.62041626 -0.10551147 17.62041626 -0.10551147 18.95874023 -0.11352539 C21 0 21 0 22 1 C22.07226502 2.85287502 22.0838122 4.70833878 22.0625 6.5625 C22.05347656 7.57441406 22.04445313 8.58632813 22.03515625 9.62890625 C22.02355469 10.41136719 22.01195313 11.19382812 22 12 C21.67 12 21.34 12 21 12 C21 8.7 21 5.4 21 2 C15.72 2 10.44 2 5 2 C5.33 3.32 5.66 4.64 6 6 C4.02 5.34 2.04 4.68 0 4 C0 2.68 0 1.36 0 0 Z " fill="#D5D1D1" transform="translate(70,46)"/>
<path d="M0 0 C10.89 0 21.78 0 33 0 C33 0.33 33 0.66 33 1 C32.14450562 1.03758423 32.14450562 1.03758423 31.27172852 1.07592773 C28.70173843 1.19156549 26.13214473 1.31443624 23.5625 1.4375 C22.66466797 1.47681641 21.76683594 1.51613281 20.84179688 1.55664062 C19.98779297 1.59853516 19.13378906 1.64042969 18.25390625 1.68359375 C17.46314697 1.72025146 16.6723877 1.75690918 15.85766602 1.79467773 C13.98598559 1.80563257 13.98598559 1.80563257 13 3 C10.30917128 2.82364548 7.67148554 2.38164079 5 2 C5 2.99 5 3.98 5 5 C3.35 4.67 1.7 4.34 0 4 C0 2.68 0 1.36 0 0 Z " fill="#D5D3D6" transform="translate(28,46)"/>
<path d="M0 0 C4.55676975 2.27838488 5.16599379 3.41498448 7 8 C7 9.32 7 10.64 7 12 C6.34 12 5.68 12 5 12 C4.67 12.99 4.34 13.98 4 15 C3.01 15 2.02 15 1 15 C1 14.01 1 13.02 1 12 C0.34 11.67 -0.32 11.34 -1 11 C0.65 11 2.3 11 4 11 C4 10.01 4 9.02 4 8 C2.68 8 1.36 8 0 8 C-0.33 8.66 -0.66 9.32 -1 10 C-0.67 6.7 -0.34 3.4 0 0 Z " fill="#FA4744" transform="translate(72,16)"/>
<path d="M0 0 C5.28 0 10.56 0 16 0 C16 0.99 16 1.98 16 3 C14.27192682 3.33895656 12.54248026 3.67091525 10.8125 4 C9.36810547 4.2784375 9.36810547 4.2784375 7.89453125 4.5625 C5.2065794 4.96877612 2.71228981 5.07933572 0 5 C0 3.35 0 1.7 0 0 Z " fill="#BC2527" transform="translate(93,37)"/>
<path d="M0 0 C0.33 0 0.66 0 1 0 C1.08074203 2.62561109 1.1403623 5.24875676 1.1875 7.875 C1.22520508 8.99455078 1.22520508 8.99455078 1.26367188 10.13671875 C1.29296875 12.3046875 1.29296875 12.3046875 1 16 C0.01 16.66 -0.98 17.32 -2 18 C-2 15.69 -2 13.38 -2 11 C-3.32 11 -4.64 11 -6 11 C-5.34 8.69 -4.68 6.38 -4 4 C-3.34 4 -2.68 4 -2 4 C-1.67 4.66 -1.34 5.32 -1 6 C-0.67 4.02 -0.34 2.04 0 0 Z " fill="#D5CCC2" transform="translate(111,75)"/>
<path d="M0 0 C1.32 0.33 2.64 0.66 4 1 C4 2.32 4 3.64 4 5 C4.66 5 5.32 5 6 5 C6.33 6.98 6.66 8.96 7 11 C7.66 11 8.32 11 9 11 C9.042721 12.66611905 9.04063832 14.33382885 9 16 C8.67 16.33 8.34 16.66 8 17 C8.66 17.66 9.32 18.32 10 19 C8.35 19 6.7 19 5 19 C4.67 17.68 4.34 16.36 4 15 C4.66 15 5.32 15 6 15 C5.38144369 13.3725363 4.75492695 11.74809644 4.125 10.125 C3.77695313 9.22007813 3.42890625 8.31515625 3.0703125 7.3828125 C2.11469105 4.87782993 2.11469105 4.87782993 0 3 C0 2.01 0 1.02 0 0 Z " fill="#CA4548" transform="translate(73,13)"/>
<path d="M0 0 C0.33 0 0.66 0 1 0 C0.99476318 0.73114014 0.98952637 1.46228027 0.98413086 2.21557617 C0.96329839 5.53954198 0.95031986 8.86349403 0.9375 12.1875 C0.92912109 13.33798828 0.92074219 14.48847656 0.91210938 15.67382812 C0.90888672 16.78564453 0.90566406 17.89746094 0.90234375 19.04296875 C0.89448853 20.57473755 0.89448853 20.57473755 0.88647461 22.13745117 C0.99480533 24.86901616 1.38293132 27.34169374 2 30 C0.35 30.66 -1.3 31.32 -3 32 C-2.86722656 31.11441406 -2.73445313 30.22882813 -2.59765625 29.31640625 C-1.2056445 19.55200264 -0.45814133 9.85003856 0 0 Z " fill="#B5B1AD" transform="translate(91,83)"/>
<path d="M0 0 C3.52323965 0.9688909 5.60171005 2.3019238 8 5 C8.886875 5.845625 9.77375 6.69125 10.6875 7.5625 C13 10 13 10 13 12 C11.68 11.67 10.36 11.34 9 11 C9 10.34 9 9.68 9 9 C7.9790625 8.6596875 7.9790625 8.6596875 6.9375 8.3125 C3.20385676 6.64427643 0.27836579 4.44270392 -3 2 C-2.01 1.34 -1.02 0.68 0 0 Z " fill="#C5BDB6" transform="translate(41,98)"/>
<path d="M0 0 C0.33 0 0.66 0 1 0 C1 7.26 1 14.52 1 22 C-4 20 -4 20 -6 19 C-6 18.34 -6 17.68 -6 17 C-5.01 17 -4.02 17 -3 17 C-3 17.66 -3 18.32 -3 19 C-2.34 19 -1.68 19 -1 19 C-1.01160156 17.71222656 -1.02320312 16.42445312 -1.03515625 15.09765625 C-1.0445327 13.41927228 -1.05363305 11.74088674 -1.0625 10.0625 C-1.07087891 9.21236328 -1.07925781 8.36222656 -1.08789062 7.48632812 C-1.09111328 6.67744141 -1.09433594 5.86855469 -1.09765625 5.03515625 C-1.10289307 4.2862915 -1.10812988 3.53742676 -1.11352539 2.76586914 C-1 1 -1 1 0 0 Z " fill="#BFB7AF" transform="translate(70,99)"/>
<path d="M0 0 C0.33 0 0.66 0 1 0 C1.30278617 5.65200843 1.30257994 11.14895768 -2 16 C-5.1875 17 -5.1875 17 -8 17 C-8 15.35 -8 13.7 -8 12 C-5.69 11.34 -3.38 10.68 -1 10 C-1.01160156 9.36191406 -1.02320312 8.72382812 -1.03515625 8.06640625 C-1.04417969 7.24011719 -1.05320312 6.41382812 -1.0625 5.5625 C-1.07410156 4.73878906 -1.08570312 3.91507812 -1.09765625 3.06640625 C-1 1 -1 1 0 0 Z " fill="#FCFAEF" transform="translate(82,61)"/>
<path d="M0 0 C0.99 0.33 1.98 0.66 3 1 C3.33 4.63 3.66 8.26 4 12 C4.99 12 5.98 12 7 12 C6.67 12.99 6.34 13.98 6 15 C5.34 15 4.68 15 4 15 C4 19.29 4 23.58 4 28 C3.67 28 3.34 28 3 28 C2.25701785 24.63214014 1.84285219 21.4331071 1.71875 17.98828125 C1.68136719 17.06595703 1.64398438 16.14363281 1.60546875 15.19335938 C1.5347278 13.26108335 1.46442045 11.3287914 1.39453125 9.39648438 C1.35714844 8.47802734 1.31976563 7.55957031 1.28125 6.61328125 C1.25095703 5.77579346 1.22066406 4.93830566 1.18945312 4.07543945 C1.12145884 1.93953965 1.12145884 1.93953965 0 0 Z " fill="#E5DFD5" transform="translate(35,52)"/>
<path d="M0 0 C0 0.33 0 0.66 0 1 C-4.65537356 1.92092281 -9.14685433 2.12205997 -13.875 2.0625 C-14.90753906 2.05573242 -14.90753906 2.05573242 -15.9609375 2.04882812 C-17.64066335 2.03716336 -19.32034375 2.01923271 -21 2 C-21 2.99 -21 3.98 -21 5 C-23.31 5 -25.62 5 -28 5 C-27.67 3.68 -27.34 2.36 -27 1 C-17.98978127 0.41464936 -9.0343984 -0.14340315 0 0 Z " fill="#91303A" transform="translate(55,35)"/>
<path d="M0 0 C0.33 1.98 0.66 3.96 1 6 C-4.94 5.01 -4.94 5.01 -11 4 C-11.33 3.01 -11.66 2.02 -12 1 C-7.9472484 0.01751476 -4.16138263 -0.08159574 0 0 Z " fill="#C1272A" transform="translate(56,36)"/>
<path d="M0 0 C0.66 0 1.32 0 2 0 C2.24849534 2.93703525 2.47448285 5.87286332 2.6875 8.8125 C2.76033203 9.64587891 2.83316406 10.47925781 2.90820312 11.33789062 C2.96298828 12.14033203 3.01777344 12.94277344 3.07421875 13.76953125 C3.13182373 14.50792236 3.18942871 15.24631348 3.2487793 16.00708008 C3 18 3 18 0 21 C0 14.07 0 7.14 0 0 Z " fill="#F7F2EA" transform="translate(89,48)"/>
<path d="M0 0 C0.33 0 0.66 0 1 0 C1 1.98 1 3.96 1 6 C1.66 6 2.32 6 3 6 C3 9.96 3 13.92 3 18 C2.34 18 1.68 18 1 18 C0.67 18.99 0.34 19.98 0 21 C-0.9584336 18.12469919 -1.06656387 16.70950069 -0.87890625 13.76953125 C-0.83056641 12.96708984 -0.78222656 12.16464844 -0.73242188 11.33789062 C-0.67634766 10.50451172 -0.62027344 9.67113281 -0.5625 8.8125 C-0.48418945 7.5450293 -0.48418945 7.5450293 -0.40429688 6.25195312 C-0.27476311 4.16763701 -0.13806823 2.08376818 0 0 Z " fill="#B6BAB4" transform="translate(100,83)"/>
<path d="M0 0 C0.66 0 1.32 0 2 0 C1.67 3.63 1.34 7.26 1 11 C1.66 11 2.32 11 3 11 C2.67 14.63 2.34 18.26 2 22 C1.67 22 1.34 22 1 22 C1 19.36 1 16.72 1 14 C0.34 14 -0.32 14 -1 14 C-1.22226864 12.23086176 -1.42733873 10.45955629 -1.625 8.6875 C-1.74101563 7.70136719 -1.85703125 6.71523437 -1.9765625 5.69921875 C-2 3 -2 3 0 0 Z " fill="#DBD6CC" transform="translate(102,75)"/>
<path d="M0 0 C0.33 0 0.66 0 1 0 C1.99 5.94 2.98 11.88 4 18 C3.01 18.33 2.02 18.66 1 19 C0 18 0 18 -0.11352539 16.23413086 C-0.10828857 15.48526611 -0.10305176 14.73640137 -0.09765625 13.96484375 C-0.09443359 13.15595703 -0.09121094 12.34707031 -0.08789062 11.51367188 C-0.07951172 10.66353516 -0.07113281 9.81339844 -0.0625 8.9375 C-0.05798828 8.08349609 -0.05347656 7.22949219 -0.04882812 6.34960938 C-0.03700373 4.23304337 -0.01906769 2.11651315 0 0 Z " fill="#878283" transform="translate(78,89)"/>
<path d="M0 0 C0.33 0 0.66 0 1 0 C1 5.61 1 11.22 1 17 C-0.32 17 -1.64 17 -3 17 C-2.505 15.515 -2.505 15.515 -2 14 C-1.69301138 10.61459776 -1.49095405 7.22864938 -1.28125 3.8359375 C-1 1 -1 1 0 0 Z " fill="#D9D2C6" transform="translate(90,83)"/>
<path d="M0 0 C3.63 0 7.26 0 11 0 C11.33 1.32 11.66 2.64 12 4 C9.03 4 6.06 4 3 4 C3 3.01 3 2.02 3 1 C2.01 0.67 1.02 0.34 0 0 Z " fill="#A72F2E" transform="translate(111,36)"/>
<path d="M0 0 C0.33 0.99 0.66 1.98 1 3 C13.87 3.495 13.87 3.495 27 4 C27 4.33 27 4.66 27 5 C18.09 5 9.18 5 0 5 C-0.33 3.68 -0.66 2.36 -1 1 C-0.67 0.67 -0.34 0.34 0 0 Z " fill="#431A16" transform="translate(61,40)"/>
<path d="M0 0 C1.2065625 0.0309375 1.2065625 0.0309375 2.4375 0.0625 C2.1075 0.7225 1.7775 1.3825 1.4375 2.0625 C8.0375 2.3925 14.6375 2.7225 21.4375 3.0625 C21.4375 3.3925 21.4375 3.7225 21.4375 4.0625 C13.5175 4.0625 5.5975 4.0625 -2.5625 4.0625 C-2.8925 3.0725 -3.2225 2.0825 -3.5625 1.0625 C-2.5625 0.0625 -2.5625 0.0625 0 0 Z " fill="#DD2D2D" transform="translate(65.5625,32.9375)"/>
<path d="M0 0 C3.40312738 1.05875074 6.01353231 2.00902154 9 4 C8.67 5.32 8.34 6.64 8 8 C4.11137013 6.73882275 2.10624401 5.54735833 0 2 C0 1.34 0 0.68 0 0 Z " fill="#802B2C" transform="translate(42,109)"/>
<path d="M0 0 C2 2 2 2 2.1953125 5.9140625 C2.18200376 7.48449351 2.15813602 9.05486221 2.125 10.625 C2.11597656 11.42679688 2.10695312 12.22859375 2.09765625 13.0546875 C2.07406223 15.03658523 2.03819065 17.01832981 2 19 C1.67 19 1.34 19 1 19 C1 15.37 1 11.74 1 8 C0.34 8 -0.32 8 -1 8 C-1.04241723 5.66705225 -1.04092937 3.33297433 -1 1 C-0.67 0.67 -0.34 0.34 0 0 Z " fill="#D0CBC0" transform="translate(59,84)"/>
<path d="M0 0 C0 0.99 0 1.98 0 3 C-0.99 3.66 -1.98 4.32 -3 5 C-2.67 5.66 -2.34 6.32 -2 7 C-3.32 7 -4.64 7 -6 7 C-6.33 8.32 -6.66 9.64 -7 11 C-7.99 11 -8.98 11 -10 11 C-10 9.68 -10 8.36 -10 7 C-9.01 7 -8.02 7 -7 7 C-7 6.34 -7 5.68 -7 5 C-5.46875 3.7109375 -5.46875 3.7109375 -3.5 2.375 C-2.8503125 1.92898437 -2.200625 1.48296875 -1.53125 1.0234375 C-0.77328125 0.51683594 -0.77328125 0.51683594 0 0 Z " fill="#FCF9ED" transform="translate(58,70)"/>
<path d="M0 0 C1.65 1.32 3.3 2.64 5 4 C2.1875 6.0625 2.1875 6.0625 -1 8 C-1.99 7.67 -2.98 7.34 -4 7 C-2.68 4.69 -1.36 2.38 0 0 Z " fill="#8A2526" transform="translate(81,127)"/>
<path d="M0 0 C0.33 0 0.66 0 1 0 C1.22185844 2.26955186 1.42705515 4.54073755 1.625 6.8125 C1.74101563 8.07707031 1.85703125 9.34164062 1.9765625 10.64453125 C2 14 2 14 0 17 C-1.32 17 -2.64 17 -4 17 C-3.34 15.68 -2.68 14.36 -2 13 C-1.34 13 -0.68 13 0 13 C0 8.71 0 4.42 0 0 Z " fill="#FBF9F0" transform="translate(66,55)"/>
<path d="M0 0 C0.66 0 1.32 0 2 0 C1.67 2.31 1.34 4.62 1 7 C2.32 7 3.64 7 5 7 C5 7.99 5 8.98 5 10 C3.02 10 1.04 10 -1 10 C-1.125 3.375 -1.125 3.375 0 0 Z " fill="#D6424C" transform="translate(71,17)"/>
<path d="M0 0 C-0.33 1.65 -0.66 3.3 -1 5 C-2.98 5.33 -4.96 5.66 -7 6 C-6.75 4.125 -6.75 4.125 -6 2 C-3.85331506 0.61504198 -2.56128588 0 0 0 Z " fill="#C12525" transform="translate(95,119)"/>
<path d="M0 0 C3.3 0 6.6 0 10 0 C9.67 1.32 9.34 2.64 9 4 C7.35 4 5.7 4 4 4 C4 3.34 4 2.68 4 2 C2.68 2 1.36 2 0 2 C0 1.34 0 0.68 0 0 Z " fill="#F8F3E9" transform="translate(91,74)"/>
<path d="M0 0 C3.0831351 1.19899698 6.06279492 2.47700477 9 4 C9 4.66 9 5.32 9 6 C9.99 6.33 10.98 6.66 12 7 C9.50907189 8.24546405 8.58919267 7.7767578 6 7 C6 6.34 6 5.68 6 5 C5.01 4.67 4.02 4.34 3 4 C3 3.34 3 2.68 3 2 C2.01 1.67 1.02 1.34 0 1 C0 0.67 0 0.34 0 0 Z " fill="#D0C6BD" transform="translate(48,103)"/>
<path d="M0 0 C1.65 0 3.3 0 5 0 C5.33 1.98 5.66 3.96 6 6 C4.02 5.34 2.04 4.68 0 4 C0 2.68 0 1.36 0 0 Z " fill="#E2E1DD" transform="translate(70,46)"/>
<path d="M0 0 C0.66 1.32 1.32 2.64 2 4 C3.5412312 5.70921589 3.5412312 5.70921589 5 7 C4.01 7 3.02 7 2 7 C2.33 8.65 2.66 10.3 3 12 C2.01 11.67 1.02 11.34 0 11 C0 7.37 0 3.74 0 0 Z " fill="#DCD4CA" transform="translate(61,92)"/>
<path d="M0 0 C1.32 0.33 2.64 0.66 4 1 C4 2.32 4 3.64 4 5 C4.66 5 5.32 5 6 5 C6 6.32 6 7.64 6 9 C5.34 9 4.68 9 4 9 C0 3.70588235 0 3.70588235 0 0 Z " fill="#B46562" transform="translate(73,13)"/>
<path d="M0 0 C5.28 0 10.56 0 16 0 C16 0.99 16 1.98 16 3 C15.01 3 14.02 3 13 3 C13 2.34 13 1.68 13 1 C6.565 1.495 6.565 1.495 0 2 C0 1.34 0 0.68 0 0 Z " fill="#B8B5C6" transform="translate(106,46)"/>
<path d="M0 0 C0.66 0 1.32 0 2 0 C1.21681311 3.91593446 -0.39179858 7.36406635 -2 11 C-2.33 11 -2.66 11 -3 11 C-3 9.02 -3 7.04 -3 5 C-2.34 5 -1.68 5 -1 5 C-0.67 3.35 -0.34 1.7 0 0 Z " fill="#9F3643" transform="translate(91,27)"/>
<path d="M0 0 C2.66666667 1.33333333 5.33333333 2.66666667 8 4 C8 4.99 8 5.98 8 7 C7.34 7 6.68 7 6 7 C6 6.34 6 5.68 6 5 C4.35 4.67 2.7 4.34 1 4 C0.67 2.68 0.34 1.36 0 0 Z " fill="#CB2223" transform="translate(58,122)"/>
<path d="M0 0 C0 1.32 0 2.64 0 4 C-0.66 4 -1.32 4 -2 4 C-2 4.66 -2 5.32 -2 6 C-2.99 6 -3.98 6 -5 6 C-4.625 3.5625 -4.625 3.5625 -4 1 C-2 0 -2 0 0 0 Z " fill="#8C2322" transform="translate(107,109)"/>
<path d="M0 0 C0.99 0 1.98 0 3 0 C3 2.31 3 4.62 3 7 C2.01 7.33 1.02 7.66 0 8 C0 5.36 0 2.72 0 0 Z " fill="#D2C8BF" transform="translate(87,100)"/>
<path d="M0 0 C1.65 0.33 3.3 0.66 5 1 C5 1.99 5 2.98 5 4 C2.36 3.67 -0.28 3.34 -3 3 C-2.01 2.67 -1.02 2.34 0 2 C0 1.34 0 0.68 0 0 Z " fill="#D0C8BF" transform="translate(36,95)"/>
<path d="M0 0 C1.485 0.99 1.485 0.99 3 2 C3.1875 4.625 3.1875 4.625 3 7 C1.68 6.67 0.36 6.34 -1 6 C-0.67 4.02 -0.34 2.04 0 0 Z " fill="#852D2E" transform="translate(68,128)"/>
<path d="M0 0 C0.66 0 1.32 0 2 0 C2 0.66 2 1.32 2 2 C2.66 2.33 3.32 2.66 4 3 C3.67 3.99 3.34 4.98 3 6 C1.68 5.67 0.36 5.34 -1 5 C-0.67 3.35 -0.34 1.7 0 0 Z " fill="#B52223" transform="translate(83,124)"/>
<path d="M0 0 C2.1519437 3.22791555 2.20086443 4.28400809 2 8 C1.01 8.33 0.02 8.66 -1 9 C-1.09765625 2.84765625 -1.09765625 2.84765625 -1 1 C-0.67 0.67 -0.34 0.34 0 0 Z " fill="#EBE8DB" transform="translate(59,57)"/>
<path d="M0 0 C0.33 0.66 0.66 1.32 1 2 C1.66 2.33 2.32 2.66 3 3 C2.34 3 1.68 3 1 3 C0.67 3.99 0.34 4.98 0 6 C-0.99 6 -1.98 6 -3 6 C-3 5.01 -3 4.02 -3 3 C-3.66 2.67 -4.32 2.34 -5 2 C-3.35 2 -1.7 2 0 2 C0 1.34 0 0.68 0 0 Z " fill="#F53C3A" transform="translate(76,25)"/>
<path d="M0 0 C0.99 0 1.98 0 3 0 C4.35439668 2.70879335 4.06501451 5.00933268 4 8 C0 3.375 0 3.375 0 0 Z M-1 5 C1 6 1 6 1 6 Z " fill="#CDC4BB" transform="translate(63,99)"/>
<path d="M0 0 C1.32 0.33 2.64 0.66 4 1 C3.67 4.63 3.34 8.26 3 12 C2.67 12 2.34 12 2 12 C2 9.36 2 6.72 2 4 C1.34 4 0.68 4 0 4 C0 2.68 0 1.36 0 0 Z " fill="#D5CCC2" transform="translate(101,85)"/>
<path d="M0 0 C0.99 0.33 1.98 0.66 3 1 C3 1.99 3 2.98 3 4 C3.99 4 4.98 4 6 4 C6 4.66 6 5.32 6 6 C4.33388095 6.042721 2.66617115 6.04063832 1 6 C0 5 0 5 -0.0625 2.4375 C-0.041875 1.633125 -0.02125 0.82875 0 0 Z " fill="#AA415B" transform="translate(63,26)"/>
<path d="M0 0 C3.25061904 0.43341587 4.95502089 1.44377611 7 4 C7 4.66 7 5.32 7 6 C5.68 5.67 4.36 5.34 3 5 C3 4.34 3 3.68 3 3 C1.68 2.34 0.36 1.68 -1 1 C-0.67 0.67 -0.34 0.34 0 0 Z " fill="#AAA49E" transform="translate(47,104)"/>
<path d="M0 0 C0.66 0.33 1.32 0.66 2 1 C1.01 1.66 0.02 2.32 -1 3 C-1.33 3.99 -1.66 4.98 -2 6 C-2.99 6 -3.98 6 -5 6 C-5 4.68 -5 3.36 -5 2 C-2.625 0.9375 -2.625 0.9375 0 0 Z " fill="#F0F1E6" transform="translate(79,71)"/>
<path d="M0 0 C2.475 0.99 2.475 0.99 5 2 C5 2.66 5 3.32 5 4 C3.35 4.33 1.7 4.66 0 5 C-0.33 4.34 -0.66 3.68 -1 3 C-0.67 2.01 -0.34 1.02 0 0 Z " fill="#AC9491" transform="translate(78,116)"/>
<path d="M0 0 C1.98 0.495 1.98 0.495 4 1 C4 1.99 4 2.98 4 4 C2.35 4 0.7 4 -1 4 C-0.67 2.68 -0.34 1.36 0 0 Z " fill="#824949" transform="translate(119,36)"/>
</svg>
